<?xml version="1.0" encoding="UTF-8"?>
<svg id="Layer_2" data-name="Layer 2" xmlns="http://www.w3.org/2000/svg" viewBox="0 0 1299.71 413.36">
  <defs>
    <style>
      .cls-1 {
        fill: #444b4b;
      }
    </style>
  </defs>
  <g id="Layer_1-2" data-name="Layer 1">
    <g>
      <path class="cls-1" d="M0,206.53C0,72.19,100.52,0,208.36,0c113.21,0,192.05,64.26,206.11,174.55,.05,.42,.1,.88,.15,1.39,3.49,36.04-25.1,67.15-61.31,67.15H112.4c5.48,43.87,53,83.16,123.37,83.16,19.97,0,37.76-3.54,52.84-8.46,38.94-12.72,81.71-2.77,110.44,26.43l.3,.31s-53,68.54-171.8,68.54C84.99,413.06,0,328.07,0,206.53Zm305.23-31.98c-1.83-50.26-37.47-89.56-96.87-89.56-55.75,0-95.95,39.3-97.78,89.56h194.65Z"/>
      <path class="cls-1" d="M1299.44,320.06s-8.32,2.77-19.4,2.77c-26.79,0-28.63-24.93-28.63-50.8v-102.53c0-111.77-74.83-168.4-185.67-168.4-60.97,0-137.1,29.23-176.21,50.04-50.26,26.74-79.62,52.09-102.13,70.47-65.7,54.65-118,117.75-155.8,166.12l-5.84-9.82c-54.87-112.39-147.82-204.31-210.79-195.24l-.06,.12,141.76,286.69,.27,.51c13.18,22.3,37.16,35.98,63.08,35.98h5.4c34.31,0,66.18-17.61,84.52-46.6,28.39-44.91,58.5-103.99,107.08-153.84,39.46-40.5,57.31-56.01,114.17-89.03,35.14-20.41,76.36-33.82,120.69-33.82,61.89,0,91.45,30.48,93.3,85.91-33.25-13.86-66.51-19.4-104.38-19.4-84.98,0-161.65,50.8-161.65,133.94s62.81,130.24,147.79,130.24c60.97,0,100.69-24.94,127.48-57.27,6.6,23.1,18.76,39.32,39.81,48.66,3.45,1.53,10.72,2.67,19.95,3.45,47.01,3.99,86.98-33.94,85.48-81.1l-.22-7.04Zm-154.26-60.04c0,46.19-49.88,74.82-91.45,74.82-38.79,0-67.43-17.55-67.43-55.42,0-29.56,21.25-59.12,74.82-59.12,31.41,0,56.35,5.55,84.06,15.71v24.01Z"/>
      <circle class="cls-1" cx="644.99" cy="74.11" r="74.11"/>
    </g>
  </g>
</svg>